<?xml version="1.0" encoding="utf-8"?>
<!-- Generator: Adobe Illustrator 17.1.0, SVG Export Plug-In . SVG Version: 6.00 Build 0)  -->
<!DOCTYPE svg PUBLIC "-//W3C//DTD SVG 1.1//EN" "http://www.w3.org/Graphics/SVG/1.1/DTD/svg11.dtd">
<svg version="1.1" id="Layer_1" xmlns="http://www.w3.org/2000/svg" xmlns:xlink="http://www.w3.org/1999/xlink" x="0px" y="0px"
	 viewBox="0 0 262.353 197.647" style="enable-background:new 0 0 262.353 197.647;" xml:space="preserve">
<style type="text/css">
	.st0{fill:#231F20;}
</style>
<path class="st0" d="M262.353,39.765c0,6.627-3.98,12-8.89,12H8.89c-4.91,0-8.89-5.373-8.89-12V12C0,5.373,3.98,0,8.89,0h244.572
	c4.91,0,8.89,5.373,8.89,12V39.765z"/>
<path class="st0" d="M262.353,112.706c0,6.627-3.98,12-8.89,12H8.89c-4.91,0-8.89-5.373-8.89-12V84.941c0-6.627,3.98-12,8.89-12
	h244.572c4.91,0,8.89,5.373,8.89,12V112.706z"/>
<path class="st0" d="M262.353,185.647c0,6.627-3.98,12-8.89,12H8.89c-4.91,0-8.89-5.373-8.89-12v-27.765c0-6.627,3.98-12,8.89-12
	h244.572c4.91,0,8.89,5.373,8.89,12V185.647z"/>
<g>
</g>
<g>
</g>
<g>
</g>
<g>
</g>
<g>
</g>
<g>
</g>
</svg>
