<?xml version="1.0" encoding="utf-8"?>
<!-- Generator: Adobe Illustrator 18.0.0, SVG Export Plug-In . SVG Version: 6.00 Build 0)  -->
<!DOCTYPE svg PUBLIC "-//W3C//DTD SVG 1.1//EN" "http://www.w3.org/Graphics/SVG/1.1/DTD/svg11.dtd">
<svg version="1.1" id="Logo" xmlns="http://www.w3.org/2000/svg" xmlns:xlink="http://www.w3.org/1999/xlink" x="0px" y="0px"
	 viewBox="0 0 432 136.5" enable-background="new 0 0 432 136.5" xml:space="preserve">
<g>
	<path fill="#ECEFB3" d="M65,0c5.5-0.4,8.9,3.1,9.8,7.2c0.3,1.2,0,3.4-0.5,4.5c-0.9,2.4-3.6,3.8-5.9,3.1c-0.8-0.2-1.9-1.4-1.1-3.1
		c0.3-0.6,1-1.4,1.5-2c0.5-0.6,1.7-1,0.8-3C68.6,4.9,67,4,63.8,4.4C57.4,5,50.4,9.6,45.9,12.7c-3.5,2.4-44.7,29.1-13.7,29.4
		c20,0.2,39.2-8.7,58.9-10.7c27-2.7,0.6,16-9.5,22.3C62,65.8,40.9,73.1,20.6,83.2c-5.8,2.9-15.2,11.1-18.3,9.4
		c-4.1-2.3-2.8-7,3.9-9.5C22.3,77,36.9,72.3,52.7,65.4C63.8,60.6,88.2,50.2,95,39.7c4.9-7.5-28-0.5-28.8-0.3
		C52,41.8,28,50.2,13.3,43.4C4,39.1,26.6,23.5,28.3,22.2C34.1,17.8,55.7,0.7,65,0z M288.4,58.8c-1.1,1.9-0.9,7.1,1.9,4.2
		C292.4,60.9,291.1,57.1,288.4,58.8z M431.7,85.8c-1-2.5-4.4-3-15.7-2c-5,0.5-18.3,4.4-23.6,3.5c-3.8-0.6-2.5-9.2-2.7-10.8
		c-0.8-6.2-2.9-6.6-6.3-7.2c-4.4-0.8-6.6,0.3-11.1,2.7c-6.7,3.6-10,7-11,5.6c-1.8-2.3,0.5-6.2-2.4-6.2c-3.9,0-4.8,1.4-8.9,3.6
		c-4.3,2.3-9.5,7.1-14.4,9.9c-2.2,1.2-7.4,3.9-9.8,3.1c-1.3-0.4-1-3,0.5-5.4c1.5-2.3,5-4.7,6.1-9.8c1.4-6.2-2.8-6.8-11-6.9
		c-11.6-0.1-18.2,4.9-22.7,11.8c-1.5,2.3-2.8,6.4-3,7.4c-0.7,3.4-11.6,4.4-13.5,1.5c-0.8-1.2-0.4-2.9-0.1-4.2
		c1.2-6,4.9-11.9,4.4-13.7c-1.3-4.6-3.8,1.1-5.8,7.1c-0.7,2.1-2.1,4.8-3,7.2c-3.5,9.3-12,7.7-16,6.2c-19.6-7.1,18-33.2,22.3-37.5
		c4.8-4.7,8.8-10.2,12.1-9.8c3.3,0.3,17.3,3.1,15.6,0c-1-1.7-3.6-1.2-5.8-1.3c-3.5-0.3-7.4-1-9.8-1.1c5.4-7.2,10.3-14.3,15.2-21.8
		c2.4-3.7,3.7-6.7,6.7-9.3c4-3.4-0.9-11.1-3.1-5.4c-4,10.5-10,19.7-16.8,29.1c-1.3,1.7-3.8,6.2-9.3,6.2c-3.7,0-9.3-1.6-11.9-1.3
		c-4,0.4-2.3,2.1-1.5,2.4c1.6,0.7,12.2,1.4,12.1,2.4c-0.5,4.2-13.9,13.7-16.3,16.1c-6.5,6.3-15.1,12.1-20.3,20.2
		c-0.4-0.7-5.5-0.3-12.6-1.5c-6.6-1.2-10.7-2.6-14.8-4.3c-3-1.2-4.8-3.8-4.4-5.4c1.6-6.4,26.6-8.1,28.6-6.9c2,1.2,4.5,5.8,6.9,1.1
		c1.5-2.9-3.7-4.1-10.1-4.5c-5.2-0.3-11.4,0.7-16.9,1.8c-4.1,0.8-7.9,2.6-11.5,4.8c-1,0.6-2-1.3-4.3-3.7c-1.7-1.8-5-2.7-6.1-2.9
		c-12.4-2.1-20.3,3.4-29.9,10.4c5.2-8.4-4.2-9.3-15.1-8.2c-10.5,1.1-22.3,5.2-24.9,6.1c10-12,18.2-25.9,27.8-38.6
		c1.8-2.4,7.6-3.5,7.2-8.3c-0.5-5.5-5.8-4.3-7.2-1.8c-3.2,5.9-5,11.8-8.7,17.2c-9,13-17.9,26.3-28.4,37.1c-8,8.3-14.1,6.7-24.3,9.2
		c-10.8,2.6-23.8,8.7-35,4.5c-13.1-4.8,5.6-12.7,7.1-13.3c2,7.3,14.9,3.5,27-0.8c11.5-4.1,16.8-7.7,16.2-10.2
		c-2.7-11.3-50.8,9.9-57,13.8c-12.5,8,5.9,15.8,13,15.3c14.2-1,23.8-4.7,35-6.7c5.1-0.9,10.4-1.1,14.2,2.9c2.1,2.2,8.3,3.1,10.5,2.9
		c10.6-0.8,18.6-2.5,28.4-6.1c-1.2,19.1,32.9-2.6,37.6-5c-3,2-4.4,6.5-3.5,12.1c1.3,7.6,9.4,5,9.1,3.1c-0.3-1.9-2.7,0.6-5.1-1.6
		c-1.2-1.9-0.8-9.2,2.8-14.1c3.4-4.7,10.1-7.9,11.2-8.2c0.4,3.6,3.2,4.6,6.7,6.5c3,1.6,8.3,3.1,11.6,3.8c6.3,1.4,14.5,1.4,13.7,3.4
		c-0.8,2-9.2,4.8-15.2,5.8c-11,1.8-24.5-0.1-22.2,4.8c2.6,5.7,38-5.4,41-9.4c0.5,9.6,11.7,11.2,20.6,10.4c3.1-0.3,4.8-1.4,8.5-2.8
		c3.7-1.4,7.7,0.8,13.1-0.4c6.8-1.5,6.2,1.1,11.6,2.2c7,1.4,17.4-6.2,19.1-3.1c3.4,6.4,12.1,0.3,14.9-1c5.9-2.7,18.5-15,19.7-11.7
		c1.3,3.3-13.5,14.8-7.5,14.7c1.8,0,6.5-4.6,10.4-7.7c2.8-2.2,8.1-5.4,11-6.9c15.1-7.7,15.5,0.6,15.1,5.5c-0.4,4.9-2.7,9.6,4.3,8.9
		c6.1-0.6,12.5-2.6,20.3-4.1c10.6-2.1,16.2,2.8,19.9,1.6C431.7,88.4,432.4,87.5,431.7,85.8z M111,61c0.3,0.8-2,3.7-6.6,5.5
		c-9.6,3.8-25.7,7.1-26.3,5.4c-0.5-1.5,10.3-7.5,19.8-10.3C104.5,59.6,110.7,60,111,61z M169.7,72.2c-5.4,6.3-23.3,12.3-33.8,13.3
		c-4.4,0.4-8.1-2.8-8.4-2.9c-3.5-5.3,5.2-13,15.8-15.7C155.7,63.8,180.6,59.4,169.7,72.2z M207.9,66c-0.6,0.9-2.9,3.4-5.7,5.3
		c-9.4,6.4-31.9,16.5-33.3,13.6c-1.3-2.7,1-7.4,1.6-8.3c3.2-4.8,11.3-9.7,16.9-13.5C196.9,56.7,212.2,59.7,207.9,66z M301.4,87.8
		c-1.5-1.2-0.7-9.4,5.1-13.5c5.4-3.7,11.3-6.1,18.3-5c6.9,1.1-0.1,9.4-6.9,14C311.5,87.8,303.4,89.4,301.4,87.8z"/>
	<g>
		<path fill="#ECEFB3" d="M143.1,136.2l-17.8-21.3v21.3h-2.4v-25.1h2.4c2.1,2.7,5.1,6.2,8.9,10.7c4.3,5,7.2,8.5,8.9,10.5v-21.3h2.4
			v25.1H143.1z"/>
		<path fill="#ECEFB3" d="M177.3,136.2l-3.6-7.8h-13.1l-3.6,7.8h-2.8l12.1-25.1h2.1l11.6,25.1H177.3z M167.3,114.6l-5.6,11.6h10.9
			L167.3,114.6z"/>
		<path fill="#ECEFB3" d="M207,133.1c-2.5,2.1-5.9,3.2-10.2,3.2h-9v-25.1h10.4c4.2,0,7.4,1.1,9.6,3.4c2.1,2.2,3.2,5.2,3.2,9.2
			C211,127.7,209.7,130.9,207,133.1z M206,116c-1.7-1.8-4.3-2.7-7.8-2.7h-7.9V134h6.6c3.7,0,6.5-0.9,8.6-2.6c2-1.7,3.1-4.3,3.1-7.7
			C208.5,120.3,207.7,117.7,206,116z"/>
		<path fill="#ECEFB3" d="M221,136.2v-25.1h19.7v2.3h-17.2v8.7h15.3v2.3h-15.3v9.7h17.4v2.3H221z"/>
		<path fill="#ECEFB3" d="M271.2,136.2l-3.6-7.8h-13.1l-3.6,7.8h-2.8l12.1-25.1h2.1l11.6,25.1H271.2z M261.2,114.6l-5.6,11.6h10.9
			L261.2,114.6z"/>
		<path fill="#ECEFB3" d="M299.5,134.2c-1.8,1.5-4.5,2.3-8.1,2.3c-7.3,0-11-3.3-11-9.8v-15.6h2.4v15.6c0,5,2.9,7.6,8.6,7.6
			c5.7,0,8.6-2.5,8.6-7.4v-15.7h2.4v15.7C302.4,130.1,301.5,132.6,299.5,134.2z"/>
	</g>
</g>
</svg>
