<?xml version="1.0" encoding="utf-8"?>
<!-- Generator: Adobe Illustrator 17.1.0, SVG Export Plug-In . SVG Version: 6.00 Build 0)  -->
<!DOCTYPE svg PUBLIC "-//W3C//DTD SVG 1.1//EN" "http://www.w3.org/Graphics/SVG/1.1/DTD/svg11.dtd">
<svg version="1.1" id="Layer_1" xmlns="http://www.w3.org/2000/svg" xmlns:xlink="http://www.w3.org/1999/xlink" x="0px" y="0px"
	 viewBox="6.337 319.16 1217.663 158.479" style="enable-background:new 6.337 319.16 1217.663 158.479;" xml:space="preserve">
<style type="text/css">
	.st0{fill:none;}
</style>
<g>
	<rect x="6.337" y="320.397" class="st0" width="1217.663" height="157.241"/>
	<path d="M75.817,355.454v3.111h-9.126v-3.733c0-15.349-5.808-26.964-21.571-26.964s-21.571,11.408-21.571,26.757
		c0,35.261,52.473,35.879,52.473,75.91c0,20.949-9.126,36.298-31.32,36.298s-31.32-15.345-31.32-36.298v-7.467h9.126v8.089
		c0,15.556,6.015,26.757,21.986,26.757s21.986-11.2,21.986-26.757c0-34.846-52.476-35.468-52.476-75.91
		c0-21.775,9.541-35.879,30.905-36.087C66.902,319.156,75.817,334.505,75.817,355.454z"/>
	<path d="M140.53,387.6v8.711h-39.616v60.562h47.705v8.715H91.373V320.401h57.246v8.711h-47.705V387.6H140.53z"/>
	<path d="M194.666,320.401c21.779,0,29.66,10.786,29.66,30.901v8.297c0,15.764-4.356,25.509-19.082,28.623
		c15.764,3.111,21.779,14.726,21.779,31.112v12.652c0,20.949-9.541,33.601-31.734,33.601h-31.112V320.401H194.666z M189.899,384.492
		c17.005,0,24.886-4.563,24.886-23.023v-9.334c0-15.138-4.771-23.023-20.323-23.023H173.72v55.38H189.899z M195.288,456.873
		c15.971,0,22.193-8.915,22.193-25.097v-13.067c0-18.871-8.504-25.509-25.719-25.509h-18.045v63.673L195.288,456.873
		L195.288,456.873z"/>
	<path d="M256.475,433.438l-7.26,32.149h-8.711l31.734-145.394h13.897l32.353,145.394h-9.541l-7.259-32.149H256.475z
		 M257.927,425.142h42.309l-21.364-93.955L257.927,425.142z"/>
	<path d="M394.195,355.454v3.111h-9.126v-3.733c0-15.349-5.808-26.964-21.571-26.964s-21.571,11.408-21.571,26.757
		c0,35.261,52.473,35.879,52.473,75.91c0,20.949-9.126,36.298-31.32,36.298s-31.32-15.345-31.32-36.298v-7.467h9.126v8.089
		c0,15.556,6.015,26.757,21.986,26.757s21.986-11.2,21.986-26.757c0-34.846-52.476-35.468-52.476-75.91
		c0-21.775,9.541-35.879,30.905-36.087C385.277,319.156,394.195,334.505,394.195,355.454z"/>
	<path d="M434.226,465.588V329.112h-29.453v-8.711h68.651v8.711h-29.66v136.476H434.226z"/>
	<path d="M494.792,320.401v145.187h-9.541V320.401H494.792z"/>
	<path d="M525.282,433.438l-7.26,32.149h-8.711l31.734-145.394h13.897l32.353,145.394h-9.541l-7.26-32.149H525.282z
		 M526.733,425.142h42.309l-21.364-93.955L526.733,425.142z"/>
	<path d="M610.526,465.588h-8.711V320.401h12.445l43.557,122.575V320.401h8.711v145.187H655.95l-45.424-129.423V465.588z"/>
	<path d="M744.512,465.588h-8.711V320.401h12.445l43.557,122.575V320.401h8.711v145.187h-10.578l-45.424-129.423L744.512,465.588
		L744.512,465.588z"/>
	<path d="M830.797,433.438l-7.263,32.149h-8.711l31.734-145.394h13.897l32.353,145.394h-9.541l-7.26-32.149H830.797z
		 M832.249,425.142h42.309l-21.364-93.955L832.249,425.142z"/>
	<path d="M939.271,320.401c22.397,0,32.146,14.726,32.146,36.087v73.01c0,21.364-9.745,36.09-32.146,36.09h-31.942V320.401H939.271z
		 M939.06,456.873c16.178,0,22.816-10.993,22.816-26.96v-73.836c0-15.971-6.841-26.964-22.816-26.964h-22.193v127.761H939.06z"/>
	<path d="M1036.338,387.6v8.711h-39.616v60.562h47.705v8.715h-57.246V320.401h57.246v8.711h-47.705V387.6H1036.338z"/>
	<path d="M1073.88,433.438l-7.26,32.149h-8.715l31.734-145.394h13.9l32.353,145.394h-9.541l-7.263-32.149H1073.88z
		 M1075.332,425.142h42.309l-21.364-93.955L1075.332,425.142z"/>
	<path d="M1159.539,430.535c0,15.556,5.807,27.586,21.778,27.586s21.779-12.027,21.779-27.586V320.401h8.919V430.12
		c0,20.741-8.715,36.712-30.905,36.712s-31.109-15.967-31.109-36.712V320.401h9.541v110.134H1159.539z"/>
</g>
</svg>
